# xmcd
#
# Track frame offsets:
#  150
#  13049
#  23822
#  35398
#  48270
#  61944
#  77764
#  90465
#  101987
#  114514
#  126745
#  145258
#
# Disc length: 2041 seconds
#
# Revision: 0
# Processed by: cddbd v1.5.2PL0 Copyright (c) Steve Scherf et al.
# Submitted via: Collectorz.com_Music_Collector 6.11
#
DISCID=9e07f70c
DTITLE=Demons - Riot Salvation
DYEAR=2000
DGENRE=
TTITLE0=Some Days
TTITLE1=Clock Strikes 13
TTITLE2=Riot Salvation
TTITLE3=Nothing Special
TTITLE4=You're Gonna Trash Me
TTITLE5=Stand Back
TTITLE6=Revenge Party
TTITLE7=69 Ways
TTITLE8=Busted
TTITLE9=Don't Get Cocky
TTITLE10=Hurts To Smile
TTITLE11=Beat-On-Me
EXTD=
EXTT0=
EXTT1=
EXTT2=
EXTT3=
EXTT4=
EXTT5=
EXTT6=
EXTT7=
EXTT8=
EXTT9=
EXTT10=
EXTT11=
PLAYORDER=
